<svg xmlns="http://www.w3.org/2000/svg" fill="none" viewBox="0 0 24 24" id="Elasticsearch--Streamline-Svg-Logos" height="24" width="24">
  <desc>
    Elasticsearch Streamline Icon: https://streamlinehq.com
  </desc>
  <path fill="#343741" d="M1.5426025 11.99995c0 1.016375 0.14247 1.996775 0.3848125 2.9375H16.230125c1.62225 0 2.937525 -1.315275 2.937525 -2.9375 0 -1.622975 -1.315275 -2.9375 -2.937525 -2.9375H1.927415c-0.2423425 0.94 -0.3848125 1.921125 -0.3848125 2.9375Z" stroke-width="0.25"></path>
  <path fill="#fec514" d="M21.3148 5.87605c0.410525 -0.3782 0.7924 -0.7843 1.142675 -1.2198C20.30355 1.9721125 17.001075 0.25 13.292475 0.25c-4.642 0 -8.637 2.7003 -10.542725 6.6094h16.058625c0.929725 0 1.82345 -0.35325 2.506425 -0.98335Z" stroke-width="0.25"></path>
  <path fill="#00bfb3" d="M18.808375 17.140625H2.74975c1.90645 3.90835 5.900725 6.6094 10.542725 6.6094 3.7086 0 7.011075 -1.72285 9.165 -4.406275 -0.350275 -0.436225 -0.73215 -0.842325 -1.142675 -1.220525 -0.682975 -0.630825 -1.5767 -0.9826 -2.506425 -0.9826Z" stroke-width="0.25"></path>
</svg>