<svg version="1.2" xmlns="http://www.w3.org/2000/svg" viewBox="0 0 1547 1623" width="1547" height="1623">
	<title>HUBS_BIG</title>
	<style>
		.s0 { fill: #ff5c35 } 
	</style>
	<path class="s0" d="m1188.5 534v-193.3c50.5-23.6 85.6-74.8 85.6-133.9v-4.5c0-81.5-66.5-148.4-148.1-148.4h-4.5c-81.9 0-148.4 66.9-148.4 148.4v4.5c0 59.1 35.1 110.3 85.6 133.9v193.3c-75.2 11.6-143.6 42.7-200.1 87.9l-529.5-412.5c3.4-13.4 6-27.3 6-41.5 0-92.7-74.8-167.9-167.2-167.9-92.4 0-167.5 74.8-167.5 167.2-0.4 92.7 74.4 167.9 167.1 167.9 30 0 58-8.6 82.3-22.5l521 405.8c-44.2 66.9-70.4 147.3-70.4 233.7 0 90.1 28.8 173.9 77.1 242.7l-158.6 158.6c-12.7-3.8-25.4-6.4-39.2-6.4-76 0-137.7 61.7-137.7 137.6 0 75.9 61.7 137.7 137.7 137.7 75.9 0 137.6-61.8 137.6-137.7 0-13.8-2.6-26.9-6.8-39.2l157.1-157.1c71.1 54.6 159.7 87.1 256.2 87.1 233.4 0 423-189.6 423-423.3 0-212-155.6-386.7-358.3-418.1zm-64.7 635c-120.1 0-216.9-97.2-216.9-216.9 0-120 96.8-217.3 216.9-217.3 119.7 0 216.9 97.3 216.9 217.3 0 119.7-97.2 216.9-216.9 216.9z"/>
</svg>