<svg id="Ibm-Db2-Alt--Streamline-Carbon" xmlns="http://www.w3.org/2000/svg" viewBox="0 0 16 16" height="16" width="16">
  <desc>
    Ibm Db2 Alt Streamline Icon: https://streamlinehq.com
  </desc>
  <defs></defs>
  <path d="M15.67895 11h-4.1985v-1.16435l1.82725 -1.56385c0.66295 -0.56945 0.89245 -0.90095 0.89245 -1.40235v-0.119c0 -0.45045 -0.39955 -0.67995 -0.782 -0.67995 -0.5609 0 -0.8329 0.38245 -0.9519 0.8329l-1.1134 -0.42495c0.26355 -0.8244 0.9519 -1.5128 2.18435 -1.5128 1.28335 0 2.02285 0.7564 2.02285 1.7848 0 1.0199 -0.73095 1.6403 -1.58095 2.31175l-1.10485 0.86695h2.8047V11Z" fill="#000000" stroke-width="0.5"></path>
  <path d="M6.41455 4.7106h1.25795v2.57525h0.0425c0.12745 -0.493 0.62035 -0.8499 1.19835 -0.8499 1.13035 0 1.7168 0.8159 1.7168 2.32875s-0.58645 2.3373 -1.7168 2.3373c-0.578 0 -1.0709 -0.3655 -1.19835 -0.8499h-0.0425V11h-1.25795V4.7106Zm2.90675 4.44505v-0.77345c0 -0.5609 -0.3485 -0.9264 -0.82445 -0.9264s-0.82435 0.24645 -0.82435 0.6544v1.3174c0 0.40795 0.3484 0.6544 0.82435 0.6544s0.82445 -0.3655 0.82445 -0.9264Z" fill="#000000" stroke-width="0.5"></path>
  <path d="M0.55815 5.06755h2.2352c1.5724 0 2.60925 0.99445 2.60925 2.96625S4.36575 11 2.79335 11H0.55815V5.06755Zm2.2352 4.78435c0.765 0 1.24095 -0.41645 1.24095 -1.35985v-0.9179c0 -0.9434 -0.47595 -1.35985 -1.24095 -1.35985H1.85v3.63765h0.94335Z" fill="#000000" stroke-width="0.5"></path>
  <path id="_Transparent_Rectangle_" d="M0 0h16v16H0Z" fill="none" stroke-width="0.5"></path>
</svg>