<?xml version="1.0" ?><svg data-name="Layer 1" id="Layer_1" viewBox="0 0 512 512" xmlns="http://www.w3.org/2000/svg"><title/><rect fill="#fdfdfd" height="412.22" rx="55.43" width="412.22" x="49.89" y="49.89"/><rect fill="#5bb381" height="121.43" rx="26.6" width="53.2" x="263.51" y="128.63"/><rect fill="#ce375c" height="121.43" rx="26.6" width="53.2" x="195.29" y="265.08"/><rect fill="#e4b34c" height="121.43" rx="26.6" transform="translate(615.9 -32.55) rotate(90)" width="53.2" x="297.62" y="230.96"/><rect fill="#63c3ec" height="121.43" rx="26.6" transform="translate(411.23 35.68) rotate(90)" width="53.2" x="161.17" y="162.74"/><path d="M221.89,128.63h0a26.6,26.6,0,0,1,26.6,26.6v26.6a0,0,0,0,1,0,0h-26.6a26.6,26.6,0,0,1-26.6-26.6v0a26.6,26.6,0,0,1,26.6-26.6Z" fill="#63c3ec"/><path d="M358.34,196.85h0a26.6,26.6,0,0,1,26.6,26.6v26.6a0,0,0,0,1,0,0h-26.6a26.6,26.6,0,0,1-26.6-26.6v0A26.6,26.6,0,0,1,358.34,196.85Z" fill="#5bb381" transform="translate(581.79 -134.89) rotate(90)"/><path d="M290.11,333.3h0a26.6,26.6,0,0,1,26.6,26.6v26.6a0,0,0,0,1,0,0h-26.6a26.6,26.6,0,0,1-26.6-26.6v0a26.6,26.6,0,0,1,26.6-26.6Z" fill="#e4b34c" transform="translate(580.23 719.81) rotate(-180)"/><path d="M153.66,265.08h0a26.6,26.6,0,0,1,26.6,26.6v26.6a0,0,0,0,1,0,0h-26.6a26.6,26.6,0,0,1-26.6-26.6v0A26.6,26.6,0,0,1,153.66,265.08Z" fill="#ce375c" transform="translate(-138.02 445.34) rotate(-90)"/></svg>