<svg version="1.2" xmlns="http://www.w3.org/2000/svg" viewBox="0 0 1550 1549" width="1550" height="1549"><style>.a{fill:#ff5f02}</style><path class="a" d="m774.8 0c-428.3 0-774.5 346.2-774.5 774.5 0 428.3 346.2 774.5 774.5 774.5 428.2 0 774.4-346.2 774.4-774.5 0-428.3-346.2-774.5-774.4-774.5zm-250.7 367.7h168.9v150.9h201v145h-201v253.1c0 65.4 35 86.7 84.2 86.7h116.8v145h-116.8c-172.5 0-253.1-73.1-253.1-231.7zm568.7 607.9c49.5 0 89.6 38.5 89.6 86.1 0 47.6-40.1 86.1-89.6 86.1-49.6 0-89.7-38.5-89.7-86.1 0-47.6 40.1-86.1 89.7-86.1z"/></svg>